<svg width="75" height="75" viewBox="0 0 75 75" fill="none" xmlns="http://www.w3.org/2000/svg">
<path d="M23.4375 32.8125C26.0263 32.8125 28.125 30.7138 28.125 28.125C28.125 25.5362 26.0263 23.4375 23.4375 23.4375C20.8487 23.4375 18.75 25.5362 18.75 28.125C18.75 30.7138 20.8487 32.8125 23.4375 32.8125Z" fill="#B3BBC4"/>
<path d="M37.5 25.7812C40.0888 25.7812 42.1875 23.6826 42.1875 21.0938C42.1875 18.5049 40.0888 16.4062 37.5 16.4062C34.9112 16.4062 32.8125 18.5049 32.8125 21.0938C32.8125 23.6826 34.9112 25.7812 37.5 25.7812Z" fill="#B3BBC4"/>
<path d="M51.5625 32.8125C54.1513 32.8125 56.25 30.7138 56.25 28.125C56.25 25.5362 54.1513 23.4375 51.5625 23.4375C48.9737 23.4375 46.875 25.5362 46.875 28.125C46.875 30.7138 48.9737 32.8125 51.5625 32.8125Z" fill="#B3BBC4"/>
<path d="M53.9062 46.875C56.4951 46.875 58.5938 44.7763 58.5938 42.1875C58.5938 39.5987 56.4951 37.5 53.9062 37.5C51.3174 37.5 49.2188 39.5987 49.2188 42.1875C49.2188 44.7763 51.3174 46.875 53.9062 46.875Z" fill="#B3BBC4"/>
<path d="M44.5312 58.5938C47.1201 58.5938 49.2188 56.4951 49.2188 53.9062C49.2188 51.3174 47.1201 49.2188 44.5312 49.2188C41.9424 49.2188 39.8438 51.3174 39.8438 53.9062C39.8438 56.4951 41.9424 58.5938 44.5312 58.5938Z" fill="#B3BBC4"/>
<path d="M38.7656 4.68751C34.3513 4.51711 29.9481 5.23984 25.8198 6.81236C21.6916 8.38488 17.9234 10.7748 14.7411 13.8389C11.5589 16.9029 9.02812 20.578 7.30056 24.6438C5.573 28.7096 4.68422 33.0824 4.68751 37.5C4.68739 39.2375 5.08805 40.9516 5.85832 42.509C6.62859 44.0664 7.74772 45.4251 9.12866 46.4795C10.5096 47.534 12.1152 48.2556 13.8205 48.5884C15.5258 48.9213 17.2849 48.8562 18.9609 48.3984L21.5859 47.6719C22.6302 47.3868 23.7261 47.3467 24.7884 47.5547C25.8507 47.7627 26.8506 48.2131 27.7103 48.8709C28.57 49.5287 29.2661 50.3761 29.7446 51.347C30.2231 52.318 30.4709 53.3863 30.4688 54.4688V63.2813C30.4688 65.1461 31.2095 66.9345 32.5282 68.2531C33.8468 69.5717 35.6352 70.3125 37.5 70.3125C41.9176 70.3158 46.2904 69.427 50.3562 67.6995C54.422 65.9719 58.0971 63.4411 61.1611 60.2589C64.2252 57.0766 66.6151 53.3084 68.1877 49.1802C69.7602 45.052 70.4829 40.6487 70.3125 36.2344C69.9724 27.9766 66.5396 20.1486 60.6955 14.3045C54.8514 8.46041 47.0234 5.02757 38.7656 4.68751ZM57.7734 56.9766C55.1565 59.7165 52.0099 61.896 48.5248 63.3827C45.0398 64.8694 41.2889 65.6323 37.5 65.625C36.8784 65.625 36.2823 65.3781 35.8427 64.9385C35.4032 64.499 35.1563 63.9029 35.1563 63.2813V54.4688C35.1563 51.3607 33.9216 48.38 31.7239 46.1823C29.5262 43.9847 26.5455 42.75 23.4375 42.75C22.3843 42.7519 21.3361 42.8937 20.3203 43.1719L17.6953 43.8984C16.7149 44.1612 15.6871 44.1946 14.6917 43.9961C13.6962 43.7976 12.7599 43.3724 11.9553 42.7537C11.1506 42.1349 10.4993 41.3391 10.0519 40.428C9.60442 39.5169 9.3728 38.515 9.37501 37.5C9.3721 33.712 10.1344 29.9625 11.6162 26.4764C13.098 22.9902 15.2688 19.8394 17.9982 17.2128C20.7276 14.5862 23.9596 12.5381 27.5 11.1912C31.0405 9.84441 34.8165 9.22664 38.6016 9.37501C45.6497 9.74209 52.3119 12.707 57.3025 17.6976C62.293 22.6881 65.2579 29.3503 65.625 36.3984C65.7863 40.1859 65.1732 43.9664 63.8232 47.5087C62.4732 51.051 60.4146 54.2807 57.7734 57V56.9766Z" fill="#B3BBC4"/>
</svg>
