<svg width="56" height="56" viewBox="0 0 56 56" fill="none" xmlns="http://www.w3.org/2000/svg">
<path d="M7.98633 1.22499C9.93598 0.530498 12.0427 0.403428 14.0617 0.858544C16.0807 1.31366 17.9291 2.33228 19.3922 3.79607C20.8554 5.25986 21.8732 7.10875 22.3274 9.12795C22.7816 11.1471 22.6536 13.2538 21.9582 15.2031L55.852 49.0937L49.2238 55.725L15.3301 21.8344C13.3799 22.5301 11.2724 22.6579 9.2524 22.2031C7.23244 21.7483 5.38308 20.7294 3.91932 19.265C2.45556 17.8006 1.43754 15.9508 0.983612 13.9306C0.529684 11.9105 0.658497 9.80296 1.35508 7.85312L8.34258 14.8437C8.77778 15.2792 9.29449 15.6246 9.8632 15.8603C10.4319 16.096 11.0415 16.2174 11.6571 16.2176C12.2727 16.2177 12.8823 16.0966 13.4512 15.8612C14.02 15.6257 14.5368 15.2805 14.9723 14.8453C15.4077 14.4101 15.7531 13.8934 15.9888 13.3247C16.2246 12.756 16.346 12.1464 16.3461 11.5308C16.3462 10.9152 16.2251 10.3055 15.9897 9.73672C15.7542 9.1679 15.409 8.65103 14.9738 8.21561L7.98633 1.22499ZM40.3832 7.10937L50.327 1.58437L54.7488 6.00624L49.2238 15.95L43.6988 17.0531L37.0707 23.6812L32.6488 19.2625L39.2801 12.6344L40.3832 7.10937ZM18.2895 31.4156L24.9145 38.0469L9.4457 53.5156C8.59424 54.3679 7.44734 54.8596 6.24299 54.8887C5.03863 54.9179 3.86929 54.4822 2.97761 53.6721C2.08592 52.8621 1.54036 51.7398 1.45412 50.5382C1.36788 49.3365 1.74759 48.1478 2.51445 47.2187L2.81758 46.8844L18.2863 31.4156H18.2895Z" fill="#B3BBC4"/>
</svg>
