<svg width="45" height="63" viewBox="0 0 45 63" fill="none" xmlns="http://www.w3.org/2000/svg">
<path d="M25.625 44H19.375V50.25H25.625V44Z" fill="#B3BBC4"/>
<path fill-rule="evenodd" clip-rule="evenodd" d="M0.625 6.5C0.625 4.8424 1.28348 3.25268 2.45558 2.08058C3.62768 0.90848 5.2174 0.25 6.875 0.25H38.125C39.7826 0.25 41.3723 0.90848 42.5444 2.08058C43.7165 3.25268 44.375 4.8424 44.375 6.5V56.5C44.375 58.1576 43.7165 59.7473 42.5444 60.9194C41.3723 62.0915 39.7826 62.75 38.125 62.75H6.875C5.2174 62.75 3.62768 62.0915 2.45558 60.9194C1.28348 59.7473 0.625 58.1576 0.625 56.5V6.5ZM6.875 6.5H38.125V56.5H6.875V6.5Z" fill="#B3BBC4"/>
</svg>
