<svg width="66" height="65" viewBox="0 0 66 65" fill="none" xmlns="http://www.w3.org/2000/svg">
<g id="FotterLink">
<path id="Vector" d="M33 0.5C14.7675 0.5 0 15.1822 0 33.3094C0 47.8276 9.44625 60.0901 22.5637 64.4373C24.2137 64.7244 24.8325 63.7401 24.8325 62.8789C24.8325 62.0997 24.7913 59.5159 24.7913 56.7681C16.5 58.2856 14.355 54.7585 13.695 52.913C13.3237 51.9697 11.715 49.0579 10.3125 48.2787C9.1575 47.6635 7.5075 46.1461 10.2712 46.1051C12.87 46.0641 14.7262 48.4837 15.345 49.468C18.315 54.4305 23.0588 53.0361 24.9563 52.1748C25.245 50.0422 26.1112 48.6068 27.06 47.7865C19.7175 46.9663 12.045 44.1365 12.045 31.5869C12.045 28.0189 13.3238 25.066 15.4275 22.7694C15.0975 21.9491 13.9425 18.5862 15.7575 14.0749C15.7575 14.0749 18.5212 13.2136 24.8325 17.4379C27.4725 16.6996 30.2775 16.3305 33.0825 16.3305C35.8875 16.3305 38.6925 16.6996 41.3325 17.4379C47.6438 13.1726 50.4075 14.0749 50.4075 14.0749C52.2225 18.5862 51.0675 21.9491 50.7375 22.7694C52.8413 25.066 54.12 27.9779 54.12 31.5869C54.12 44.1775 46.4062 46.9663 39.0638 47.7865C40.26 48.8118 41.2913 50.7804 41.2913 53.8563C41.2913 58.2445 41.25 61.7716 41.25 62.8789C41.25 63.7401 41.8688 64.7654 43.5187 64.4373C50.0702 62.239 55.7632 58.0532 59.7961 52.4691C63.8291 46.885 65.9988 40.184 66 33.3094C66 15.1822 51.2325 0.5 33 0.5Z" fill="white"/>
</g>
</svg>
