<svg width="65" height="65" viewBox="0 0 65 65" fill="none" xmlns="http://www.w3.org/2000/svg">
<g id="FotterLink">
<path id="Vector" d="M57.7778 0C59.6932 0 61.5302 0.76091 62.8847 2.11534C64.2391 3.46977 65 5.30677 65 7.22222V57.7778C65 59.6932 64.2391 61.5302 62.8847 62.8847C61.5302 64.2391 59.6932 65 57.7778 65H7.22222C5.30677 65 3.46977 64.2391 2.11534 62.8847C0.76091 61.5302 0 59.6932 0 57.7778V7.22222C0 5.30677 0.76091 3.46977 2.11534 2.11534C3.46977 0.76091 5.30677 0 7.22222 0H57.7778ZM55.9722 55.9722V36.8333C55.9722 33.7111 54.7319 30.7168 52.5242 28.5091C50.3165 26.3014 47.3222 25.0611 44.2 25.0611C41.1306 25.0611 37.5556 26.9389 35.8222 29.7556V25.7472H25.7472V55.9722H35.8222V38.1694C35.8222 35.3889 38.0611 33.1139 40.8417 33.1139C42.1825 33.1139 43.4684 33.6465 44.4165 34.5946C45.3646 35.5427 45.8972 36.8286 45.8972 38.1694V55.9722H55.9722ZM14.0111 20.0778C15.6201 20.0778 17.1632 19.4386 18.3009 18.3009C19.4386 17.1632 20.0778 15.6201 20.0778 14.0111C20.0778 10.6528 17.3694 7.90833 14.0111 7.90833C12.3926 7.90833 10.8403 8.5513 9.69579 9.69579C8.5513 10.8403 7.90833 12.3926 7.90833 14.0111C7.90833 17.3694 10.6528 20.0778 14.0111 20.0778ZM19.0306 55.9722V25.7472H9.02778V55.9722H19.0306Z" fill="white"/>
</g>
</svg>
