<svg width="65" height="55" viewBox="0 0 65 55" fill="none" xmlns="http://www.w3.org/2000/svg">
<g id="FotterLink">
<path id="Vector" d="M6.5 55C4.7125 55 3.18175 54.3262 1.90775 52.9787C0.633755 51.6312 -0.00216115 50.0133 5.51783e-06 48.125V6.875C5.51783e-06 4.98438 0.637005 3.36532 1.91101 2.01782C3.185 0.670318 4.71467 -0.00228583 6.5 5.83617e-06H58.5C60.2875 5.83617e-06 61.8182 0.673755 63.0922 2.02125C64.3662 3.36875 65.0022 4.98667 65 6.875V48.125C65 50.0156 64.363 51.6347 63.089 52.9822C61.815 54.3297 60.2853 55.0023 58.5 55H6.5ZM32.5 30.9375L6.5 13.75V48.125H58.5V13.75L32.5 30.9375ZM32.5 24.0625L58.5 6.875H6.5L32.5 24.0625ZM6.5 13.75V6.875V48.125V13.75Z" fill="white"/>
</g>
</svg>
